<svg width="23" height="23" viewBox="0 0 23 23" fill="none" xmlns="http://www.w3.org/2000/svg">
<g clip-path="url(#clip0)">
<path d="M0.89842 10.6016H19.9254L16.7735 7.46493C16.4218 7.1149 16.4205 6.54606 16.7705 6.19436C17.1206 5.84263 17.6895 5.84132 18.0411 6.19131L22.7357 10.8632C22.736 10.8635 22.7362 10.8638 22.7365 10.864C23.0873 11.2141 23.0884 11.7848 22.7366 12.136C22.7362 12.1362 22.736 12.1365 22.7358 12.1368L18.0412 16.8087C17.6896 17.1586 17.1207 17.1574 16.7706 16.8056C16.4206 16.4539 16.4219 15.8851 16.7736 15.5351L19.9254 12.3984H0.89842C0.402214 12.3984 -1.71661e-05 11.9962 -1.71661e-05 11.5C-1.71661e-05 11.0038 0.402214 10.6016 0.89842 10.6016Z" fill="#775AA6"/>
</g>
<defs>
<clipPath id="clip0">
<rect width="23" height="23" fill="white" transform="matrix(-1 0 0 1 23 0)"/>
</clipPath>
</defs>
</svg>
