<svg width="14" height="15" viewBox="0 0 14 15" fill="none" xmlns="http://www.w3.org/2000/svg">
<g clip-path="url(#clip0)">
<path d="M7 0.496582C3.14029 0.496582 0 3.67944 0 7.59183C0 11.5042 3.14029 14.6871 7 14.6871C10.8599 14.6871 14 11.5042 14 7.59183C14 3.67944 10.8597 0.496582 7 0.496582ZM7 13.6513C3.70371 13.6513 1.02189 10.933 1.02189 7.59183C1.02189 4.25069 3.70371 1.53238 7 1.53238C10.2963 1.53238 12.9781 4.25066 12.9781 7.59166C12.9781 10.933 10.2963 13.6513 7 13.6513Z" fill="#775AA6"/>
<path d="M9.38346 7.59183H7.16935V4.48442C7.16935 4.19836 6.94062 3.96652 6.65841 3.96652C6.37619 3.96652 6.14746 4.19836 6.14746 4.48442V8.10973C6.14746 8.39579 6.37619 8.62763 6.65841 8.62763H9.38346C9.66567 8.62763 9.8944 8.39579 9.8944 8.10973C9.8944 7.82368 9.66567 7.59183 9.38346 7.59183Z" fill="#775AA6"/>
</g>
<defs>
<clipPath id="clip0">
<rect width="14" height="14.1905" fill="white" transform="translate(0 0.496582)"/>
</clipPath>
</defs>
</svg>
